<?xml version="1.0" encoding="UTF-8"?>
<svg xmlns="http://www.w3.org/2000/svg" xmlns:xlink="http://www.w3.org/1999/xlink" version="1.1" viewBox="0 0 24 24">
  <defs>
    <style>
      .cls-1 {
        fill: none;
      }

      .cls-2 {
        fill: #464646;
      }

      .cls-3 {
        clip-path: url(#clippath);
      }
    </style>
    <clipPath id="clippath">
      <rect class="cls-1" x="0" y="0" width="23.9" height="23.9"/>
    </clipPath>
  </defs>
  <!-- Generator: Adobe Illustrator 28.6.0, SVG Export Plug-In . SVG Version: 1.2.0 Build 709)  -->
  <g>
    <g id="_圖層_1">
      <g id="_圖層_1-2">
        <g class="cls-3">
          <g>
            <path class="cls-2" d="M9.8,20.8c-.6,0-1.1-.2-1.4-.7l-1-1.2c-.1-.1-.3-.2-.5-.2h-3.2c-1.3,0-2.4-1.1-2.4-2.5v-7.2c0-1.4,1.1-2.5,2.4-2.5h12.1c1.3,0,2.4,1.1,2.4,2.5v7.2c0,1.4-1.1,2.5-2.4,2.5h-3.2c-.2,0-.3,0-.5.2l-1,1.2c-.4.4-.9.7-1.4.7h.1,0ZM3.7,7.8c-.6,0-1.2.6-1.2,1.3v7.2c0,.7.5,1.3,1.2,1.3h3.2c.6,0,1.1.2,1.4.7l1,1.2c.2.3.7.3.9,0l1-1.2c.4-.4.9-.7,1.4-.7h3.2c.6,0,1.2-.6,1.2-1.3v-7.2c0-.7-.5-1.3-1.2-1.3,0,0-12.1,0-12.1,0Z"/>
            <path class="cls-2" d="M20.6,15.1c-.3,0-.5-.2-.6-.5s0-.7.4-.8c.5-.2.9-.7.9-1.2v-7.2c0-.7-.6-1.3-1.3-1.3H7.3c-.5,0-1,.3-1.2.8-.1.3-.5.5-.8.3-.3-.1-.5-.5-.3-.8.4-.9,1.3-1.5,2.3-1.5h12.8c1.4,0,2.5,1.1,2.5,2.5v7.2c0,1.1-.7,2.1-1.8,2.4h-.2c0,.1,0,.1,0,.1Z"/>
          </g>
        </g>
      </g>
    </g>
  </g>
</svg>